<svg xmlns="http://www.w3.org/2000/svg" xmlns:xlink="http://www.w3.org/1999/xlink" width="32" height="32" viewBox="0 0 32 32"><defs><path id="6zr7a" d="M50.062 104.375h1.875v9.375h-1.875V120H21.937V98.125h7.438v-1.963l-4.356-2.554a3.107 3.107 0 0 1-1.894.642A3.129 3.129 0 0 1 20 91.125 3.129 3.129 0 0 1 23.125 88a3.129 3.129 0 0 1 2.978 4.07l5.147 3.018v3.037h3.812v-4.019a3.13 3.13 0 0 1-2.187-2.981A3.129 3.129 0 0 1 36 88a3.129 3.129 0 0 1 3.125 3.125 3.13 3.13 0 0 1-2.187 2.981v4.019h3.812v-7.938h5.144A3.13 3.13 0 0 1 48.875 88 3.129 3.129 0 0 1 52 91.125a3.129 3.129 0 0 1-3.125 3.125 3.13 3.13 0 0 1-2.981-2.188h-3.269v6.063h7.437zm-1.187-14.5c-.69 0-1.25.56-1.25 1.25s.56 1.25 1.25 1.25 1.25-.56 1.25-1.25-.56-1.25-1.25-1.25zm-25.75 2.5c.69 0 1.25-.56 1.25-1.25s-.56-1.25-1.25-1.25-1.25.56-1.25 1.25.56 1.25 1.25 1.25zm11.625-1.25c0 .69.56 1.25 1.25 1.25s1.25-.56 1.25-1.25-.56-1.25-1.25-1.25-1.25.56-1.25 1.25zm13.437 22.625h-6.562a4.693 4.693 0 0 1-4.688-4.688 4.693 4.693 0 0 1 4.688-4.687h6.562V100H23.812v18.125h24.375zm1.875-7.5h-8.437a2.816 2.816 0 0 0-2.813 2.812 2.816 2.816 0 0 0 2.813 2.813h8.437zM41.625 110a.937.937 0 1 1 0-1.875.937.937 0 0 1 0 1.875z"/></defs><g><g transform="translate(-20 -88)"><use fill="#1083ff" xlink:href="#6zr7a"/></g></g></svg>