<svg xmlns="http://www.w3.org/2000/svg" xmlns:xlink="http://www.w3.org/1999/xlink" width="32" height="27" viewBox="0 0 32 27"><defs><path id="qkc5a" d="M52 222.719c0 .96-.528 1.832-1.377 2.277L42.98 229H32.187a7.17 7.17 0 0 1-5.312-2.351V229H20v-15l11.103.001c1.227 0 2.387.47 3.267 1.325l2.495 2.425h5.697a3.14 3.14 0 0 1 3.125 3.064c.003.16-.007.32-.028.477l3.016-1.03c.787-.242 1.62-.1 2.282.39A2.546 2.546 0 0 1 52 222.719zm-27-6.843h-3.125v11.25H25zm25.125 6.843a.689.689 0 0 0-.282-.56.689.689 0 0 0-.607-.108l-5.705 1.95h-7.094V224h-.775c-.82 0-1.596-.32-2.18-.904l1.325-1.326c.23.229.535.355.86.355h6.852c.348 0 .69-.144.936-.395.237-.241.363-.553.357-.88a1.256 1.256 0 0 0-1.25-1.225h-6.458l-3.041-2.954a2.798 2.798 0 0 0-1.96-.795h-4.228v5.937a5.318 5.318 0 0 0 5.312 5.312H42.52l7.233-3.79a.693.693 0 0 0 .373-.616zM42 201.999l5 4.882-1.28 1.25-2.814-2.746V213h-1.811v-7.615l-2.814 2.747-1.281-1.25z"/></defs><g><g opacity=".65" transform="translate(-20 -202)"><use xlink:href="#qkc5a"/></g></g></svg>