<svg xmlns="http://www.w3.org/2000/svg" xmlns:xlink="http://www.w3.org/1999/xlink" width="32" height="32" viewBox="0 0 32 32"><defs><path id="cxxxa" d="M39.565 278.078l10.105-1.734-1.734 10.105-1.948-1.948A15.957 15.957 0 0 1 36 288c-8.844 0-16-7.158-16-16v-.938h6.561V272A9.434 9.434 0 0 0 36 281.439c1.9 0 3.747-.572 5.3-1.627zm4.535 1.883c-.387.24-3.124 3.353-8.1 3.353-5.947 0-10.803-4.576-11.276-10.377h-2.819c.473 7.27 6.512 13.188 14.095 13.188 6.28 0 9.747-3.98 10.076-4.188l.625.625.673-3.922-3.922.673zM36 256c8.844 0 16 7.157 16 16v.937h-6.561V272A9.434 9.434 0 0 0 36 262.561a9.293 9.293 0 0 0-5.282 1.612l1.75 1.75-10.106 1.733 1.734-10.105 1.934 1.934A15.959 15.959 0 0 1 36 256zm14.095 15.062c-.473-7.27-6.512-13.187-14.095-13.187-6.265 0-9.73 3.963-10.06 4.172l-.609-.61-.673 3.923 3.923-.673-.666-.665c.407-.251 3.128-3.336 8.085-3.336 5.947 0 10.803 4.576 11.276 10.376z"/></defs><g><g opacity=".65" transform="translate(-20 -256)"><use xlink:href="#cxxxa"/></g></g></svg>