<svg xmlns="http://www.w3.org/2000/svg" xmlns:xlink="http://www.w3.org/1999/xlink" width="32" height="32" viewBox="0 0 32 32"><defs><path id="zg5ua" d="M36.937 315.75h5.625v1.875h-5.625zm-6.562 1.875a.937.937 0 1 1 0-1.875.937.937 0 0 1 0 1.875zm3.75 0a.937.937 0 1 1 0-1.875.937.937 0 0 1 0 1.875zm2.812 1.875h5.625v1.875h-5.625zm0 3.75h5.625v1.875h-5.625zm15.063 17v1.875H46.15A2.817 2.817 0 0 1 43.5 344a2.817 2.817 0 0 1-2.651-1.875H38.65A2.817 2.817 0 0 1 36 344a2.817 2.817 0 0 1-2.651-1.875H31.15A2.817 2.817 0 0 1 28.5 344a2.817 2.817 0 0 1-2.651-1.875h-5.85v-1.875h5.85a2.826 2.826 0 0 1 1.713-1.714v-5.286h-1.875V312h20.625v21.25h-1.875v5.286a2.826 2.826 0 0 1 1.714 1.714zm-24.438-8.875h16.875v-17.5H27.562zm.938 10.75a.939.939 0 0 0 0-1.875.939.939 0 0 0 0 1.875zm4.849-1.875a2.826 2.826 0 0 1 1.713-1.714v-5.286h-5.625v5.286a2.826 2.826 0 0 1 1.714 1.714zM36 342.125a.939.939 0 0 0 0-1.875.939.939 0 0 0 0 1.875zm4.849-1.875a2.826 2.826 0 0 1 1.713-1.714v-5.286h-5.625v5.286c.798.283 1.431.916 1.714 1.714zm2.65 1.875a.939.939 0 0 0 0-1.875.939.939 0 0 0 0 1.875z"/></defs><g><g opacity=".65" transform="translate(-20 -312)"><use xlink:href="#zg5ua"/></g></g></svg>