<svg xmlns="http://www.w3.org/2000/svg" xmlns:xlink="http://www.w3.org/1999/xlink" width="32" height="32" viewBox="0 0 32 32"><defs><path id="d5o3a" d="M1004 26.358c6.42 0 11.642 5.223 11.642 11.642 0 6.42-5.223 11.642-11.642 11.642-6.42 0-11.642-5.223-11.642-11.642 0-6.42 5.223-11.642 11.642-11.642zm-5.224 19.89a9.71 9.71 0 0 0 5.224 1.519 9.71 9.71 0 0 0 5.224-1.519v-3.045a3.783 3.783 0 0 0-3.778-3.778h-2.892a3.783 3.783 0 0 0-3.778 3.778zM1004 37.55a2.653 2.653 0 0 0 2.65-2.65 2.653 2.653 0 0 0-2.65-2.65 2.653 2.653 0 0 0-2.65 2.65 2.653 2.653 0 0 0 2.65 2.65zm7.1 7.15a9.731 9.731 0 0 0 2.667-6.7c0-5.385-4.382-9.767-9.767-9.767s-9.767 4.382-9.767 9.767a9.732 9.732 0 0 0 2.668 6.7v-1.497a5.664 5.664 0 0 1 3.71-5.31 4.505 4.505 0 0 1-1.136-2.993 4.53 4.53 0 0 1 4.525-4.525 4.53 4.53 0 0 1 4.525 4.525c0 1.147-.43 2.195-1.136 2.994a5.664 5.664 0 0 1 3.71 5.31zm4.214-18.014A15.896 15.896 0 0 1 1020 38c0 4.274-1.664 8.292-4.686 11.314A15.896 15.896 0 0 1 1004 54a15.895 15.895 0 0 1-11.314-4.686A15.895 15.895 0 0 1 988 38c0-4.274 1.664-8.292 4.686-11.314A15.895 15.895 0 0 1 1004 22c4.274 0 8.292 1.664 11.314 4.686zM1004 52.125c7.789 0 14.125-6.336 14.125-14.125s-6.336-14.125-14.125-14.125S989.875 30.211 989.875 38 996.21 52.125 1004 52.125z"/></defs><g><g opacity=".65" transform="translate(-988 -22)"><use xlink:href="#d5o3a"/></g></g></svg>