<svg xmlns="http://www.w3.org/2000/svg" xmlns:xlink="http://www.w3.org/1999/xlink" width="32" height="31" viewBox="0 0 32 31"><defs><path id="72hja" d="M1333 32.615v14.07L1328.312 53l-4.215-5.678H1310.5v-4.254a10.076 10.076 0 0 1-4.434-1.433L1301 45.263V32.551c0-5.818 4.626-10.551 10.312-10.551 5.687 0 10.313 4.733 10.313 10.55v.065zm-26.432 7.075a8.259 8.259 0 0 0 4.744 1.493c4.653 0 8.438-3.872 8.438-8.632s-3.785-8.633-8.438-8.633c-4.652 0-8.437 3.873-8.437 8.633v9.028l3.158-2.262zm24.557-5.157h-9.683a10.635 10.635 0 0 1-.822 2.558h7.317v1.918h-8.476c-.545.72-1.18 1.364-1.886 1.918h7.237v1.919h-9.25v-.683c-.989.46-2.061.764-3.187.883v2.357h12.653l3.284 4.425 2.813-3.788zm-20.75-4.54h-1.875c0-1.587 1.262-2.877 2.812-2.877 1.551 0 2.813 1.29 2.813 2.877 0 1.25-.784 2.317-1.875 2.713v1.443h-1.875v-3.197h.937a.95.95 0 0 0 .938-.959.95.95 0 0 0-.938-.96.95.95 0 0 0-.937.96zm0 6.075h1.875v1.918h-1.875z"/></defs><g><g transform="translate(-1301 -22)"><use fill="#595959" xlink:href="#72hja"/></g></g></svg>