<svg xmlns="http://www.w3.org/2000/svg" xmlns:xlink="http://www.w3.org/1999/xlink" width="28" height="32" viewBox="0 0 28 32"><defs><path id="asaaa" d="M1224 49.958h-9.944c-.038 2.235-1.842 4.042-4.056 4.042s-4.018-1.807-4.055-4.042H1196V43.78l.377-.281c2.1-1.566 3.353-4.078 3.353-6.72V32.41c0-5.74 4.607-10.41 10.27-10.41 5.663 0 10.27 4.67 10.27 10.41v4.37c0 2.641 1.254 5.153 3.353 6.719l.377.28zm-22.42-13.178c0 2.403-.848 4.719-2.337 6.536h21.514a10.34 10.34 0 0 1-2.337-6.536v-4.37c0-4.706-3.777-8.535-8.42-8.535s-8.42 3.829-8.42 8.535zm8.42 15.345c1.194 0 2.17-.966 2.207-2.167h-4.414c.038 1.201 1.013 2.167 2.207 2.167zm12.15-4.042v-2.892h-24.3v2.892z"/></defs><g><g opacity=".65" transform="translate(-1196 -22)"><use xlink:href="#asaaa"/></g></g></svg>