<svg xmlns="http://www.w3.org/2000/svg" xmlns:xlink="http://www.w3.org/1999/xlink" width="32" height="32" viewBox="0 0 32 32"><defs><path id="2yg4a" d="M1277.965 42.086a13.528 13.528 0 0 1-.91 2.19l1.524 2.772-4.53 4.531-2.773-1.523a13.53 13.53 0 0 1-2.19.91l-.882 3.034h-6.408l-.882-3.035a13.53 13.53 0 0 1-2.19-.91l-2.772 1.524-4.531-4.53 1.523-2.773a13.54 13.54 0 0 1-.91-2.19l-3.034-.882v-6.408l3.035-.882c.238-.755.542-1.489.909-2.19l-1.523-2.772 4.53-4.531 2.772 1.523a13.527 13.527 0 0 1 2.191-.91l.882-3.034h6.408l.882 3.034c.755.239 1.489.543 2.19.91l2.772-1.523 4.531 4.53-1.523 2.772c.366.702.671 1.436.91 2.191l3.034.882v6.408zm1.16-2.29v-3.592l-2.68-.78-.138-.506a11.65 11.65 0 0 0-1.134-2.73l-.261-.456 1.346-2.45-2.54-2.54-2.45 1.346-.457-.261a11.653 11.653 0 0 0-2.729-1.134l-.507-.138-.779-2.68h-3.592l-.78 2.68-.506.138c-.954.26-1.872.642-2.73 1.133l-.456.262-2.45-1.346-2.54 2.54 1.346 2.45-.262.457a11.65 11.65 0 0 0-1.133 2.729l-.138.507-2.68.779v3.592l2.68.78.138.506c.26.954.642 1.872 1.133 2.729l.262.457-1.346 2.45 2.54 2.54 2.45-1.346.457.261c.857.492 1.775.873 2.729 1.134l.507.138.779 2.68h3.592l.78-2.68.506-.138c.954-.26 1.872-.642 2.73-1.134l.456-.261 2.45 1.346 2.54-2.54-1.346-2.45.261-.457a11.65 11.65 0 0 0 1.134-2.73l.138-.506zM1265 28.156c5.428 0 9.844 4.416 9.844 9.844 0 5.428-4.416 9.844-9.844 9.844-5.428 0-9.844-4.416-9.844-9.844 0-5.428 4.416-9.844 9.844-9.844zm0 17.813c4.394 0 7.969-3.575 7.969-7.969s-3.575-7.969-7.969-7.969-7.969 3.575-7.969 7.969 3.575 7.969 7.969 7.969zm0-14.063a6.1 6.1 0 0 1 6.094 6.094 6.1 6.1 0 0 1-6.094 6.094 6.1 6.1 0 0 1-6.094-6.094 6.1 6.1 0 0 1 6.094-6.094zm0 10.313a4.224 4.224 0 0 0 4.219-4.219 4.224 4.224 0 0 0-4.219-4.219 4.224 4.224 0 0 0-4.219 4.219 4.224 4.224 0 0 0 4.219 4.219z"/></defs><g><g transform="translate(-1249 -22)"><use fill="#595959" xlink:href="#2yg4a"/></g></g></svg>