<svg xmlns="http://www.w3.org/2000/svg" xmlns:xlink="http://www.w3.org/1999/xlink" width="103" height="32" viewBox="0 0 103 32"><defs><path id="on6da" d="M381.62 299.525l-5.24 31h-8.375l5.236-31zm-11.764.029l-13.188 30.94-8.86.015-7.5-25.851c5.39 3.48 9.983 9.004 11.6 12.85l.874 3.193 8.202-21.14zm-18.303 15.919c-2.774-7.165-9.46-13.123-19.563-15.596l.108-.619h12.983c1.75.067 3.161.63 3.648 2.519zm42.24-7.338c-.018 1.451 1.774 2.407 4.704 3.846 4.839 2.205 7.073 4.893 7.036 8.415-.06 6.439-5.78 10.593-14.583 10.593-3.754-.039-7.37-.784-9.33-1.65l1.178-6.94 1.079.496c2.75 1.156 4.531 1.623 7.885 1.623 2.405 0 4.981-.951 5.007-3.026.015-1.358-1.079-2.325-4.342-3.846-3.179-1.485-7.387-3.97-7.333-8.423.045-6.025 5.877-10.23 14.152-10.23 3.244 0 5.843.674 7.502 1.302l-1.133 6.718-.756-.358c-1.542-.626-3.528-1.23-6.268-1.187-3.278 0-4.798 1.378-4.798 2.667zm41.22 22.405h-7.768s-.77-3.562-1.02-4.644c-1.218 0-9.762-.013-10.724-.013-.326.837-1.76 4.657-1.76 4.657h-8.794l12.434-28.41c.883-2.02 2.378-2.572 4.387-2.572h6.47zm-10.146-11l-1.94-8.95-.564-2.673c-.433 1.167-1.161 3.045-1.116 2.96 0 0-2.647 6.884-3.336 8.663z"/></defs><g><g transform="translate(-332 -299)"><use fill="#1083ff" xlink:href="#on6da"/></g></g></svg>