<svg xmlns="http://www.w3.org/2000/svg" xmlns:xlink="http://www.w3.org/1999/xlink" width="32" height="32" viewBox="0 0 32 32"><defs><path id="rkr4a" d="M390.396 125.881l1.632-1.163c.412.58.786 1.186 1.12 1.815l-1.77.937c-.292-.551-.62-1.082-.982-1.589zm-1.183-1.445a14.31 14.31 0 0 0-1.366-1.277l1.27-1.55c.55.452 1.07.939 1.558 1.458zm4.807 4.048a15.998 15.998 0 0 1-1.39 13.897c-4.63 7.527-14.483 9.876-22.01 5.247-7.527-4.629-9.876-14.483-5.247-22.009 4.629-7.527 14.483-9.876 22.01-5.247l-1.053 1.703a14.03 14.03 0 0 0-12.203-1.22c-7.271 2.675-10.996 10.74-8.32 18.01 2.676 7.271 10.74 10.996 18.012 8.32 7.27-2.676 10.996-10.74 8.32-18.01l1.879-.69zm-17.05 3.026c0 .83.672 1.502 1.502 1.502h1.002a3.497 3.497 0 0 1 .5 6.96v2.053h-2.003v-2.003h-3.004v-2.003h4.507a1.502 1.502 0 1 0 0-3.004h-1.002a3.497 3.497 0 0 1-.5-6.96v-2.054h2.002v2.003h3.005v2.003h-4.507c-.83 0-1.502.673-1.502 1.503z"/></defs><g><g transform="translate(-363 -118)"><use fill="#0cf" xlink:href="#rkr4a"/></g></g></svg>