<svg xmlns="http://www.w3.org/2000/svg" xmlns:xlink="http://www.w3.org/1999/xlink" width="32" height="32" viewBox="0 0 32 32"><defs><path id="b2n4a" d="M963.217 218.437a14.039 14.039 0 0 0-1.363-1.276l1.267-1.55c.551.452 1.072.938 1.558 1.458zm1.183 1.445l1.63-1.162c.413.579.787 1.185 1.12 1.813l-1.77.936c-.291-.55-.619-1.08-.98-1.587zm3.619 2.601a15.995 15.995 0 0 1-1.392 13.9c-4.63 7.525-14.485 9.871-22.01 5.241-7.526-4.63-9.873-14.483-5.242-22.008 4.63-7.524 14.485-9.87 22.01-5.24l-1.052 1.701a14.016 14.016 0 0 0-12.184-1.219c-7.265 2.67-10.988 10.725-8.317 17.988 2.671 7.264 10.726 10.987 17.99 8.316 7.265-2.67 10.989-10.724 8.318-17.988zm-20.263 13.534l1.096-5.478-3.507 1.403-.744-1.86 4.72-1.887 1.678-8.39 1.962.393-1.42 7.11 3.07-1.23.745 1.86-4.284 1.714-.873 4.363h9.79v2.002z"/></defs><g><g transform="translate(-937 -212)"><use fill="#0cf" xlink:href="#b2n4a"/></g></g></svg>