<svg xmlns="http://www.w3.org/2000/svg" xmlns:xlink="http://www.w3.org/1999/xlink" width="32" height="32" viewBox="0 0 32 32"><defs><path id="95caa" d="M678.376 221.473l1.773-.936c.333.63.624 1.282.87 1.951l-1.881.69a14.08 14.08 0 0 0-.762-1.705zm-.98-1.589a14.167 14.167 0 0 0-1.185-1.447l1.463-1.37c.487.52.94 1.072 1.354 1.652zm4.225 4.65a16 16 0 0 1-3.223 13.581c-5.587 6.847-15.666 7.869-22.512 2.282-6.847-5.586-7.868-15.665-2.282-22.512 5.586-6.847 15.665-7.869 22.512-2.282l-1.27 1.551a14.04 14.04 0 0 0-11.937-2.835c-7.568 1.685-12.338 9.186-10.654 16.755 1.685 7.568 9.186 12.338 16.755 10.654 7.568-1.685 12.338-9.186 10.653-16.755l1.958-.434zm-15.658-7.48l6.991 11.653-6.991 10.1-6.992-10.1zm2.942 13.977l-2.942 1.312-2.942-1.312 2.942 4.253zm1.415-2.82l-4.357-7.26-4.358 7.26 4.358 1.937z"/></defs><g><g transform="translate(-650 -212)"><use fill="#0cf" xlink:href="#95caa"/></g></g></svg>