<svg xmlns="http://www.w3.org/2000/svg" xmlns:xlink="http://www.w3.org/1999/xlink" width="32" height="32" viewBox="0 0 32 32"><defs><path id="fgu5a" d="M1250.213 124.436a14.318 14.318 0 0 0-1.366-1.277l1.27-1.55c.55.452 1.07.939 1.558 1.458zm1.183 1.445l1.632-1.163c.412.58.786 1.186 1.12 1.815l-1.77.937c-.292-.551-.62-1.082-.982-1.589zm3.624 2.603a15.998 15.998 0 0 1-1.39 13.897c-4.63 7.527-14.483 9.876-22.01 5.247-7.527-4.629-9.876-14.483-5.247-22.009 4.629-7.527 14.483-9.876 22.01-5.247l-1.053 1.703a14.03 14.03 0 0 0-12.203-1.22c-7.271 2.675-10.996 10.74-8.32 18.01 2.676 7.271 10.74 10.996 18.012 8.32 7.27-2.676 10.996-10.74 8.32-18.01l1.879-.69zm-14.046 3.94v1.59h5.008v2.002h-5.008v2.003h5.008v2.003h-5.008v2.003h-2.003v-2.003h-5.007v-2.003h5.007v-2.003h-5.007v-2.003h5.007v-1.588l-5.715-5.716 1.416-1.416 5.3 5.301 5.302-5.3 1.416 1.415z"/></defs><g><g transform="translate(-1224 -118)"><use fill="#0cf" xlink:href="#fgu5a"/></g></g></svg>