<svg xmlns="http://www.w3.org/2000/svg" xmlns:xlink="http://www.w3.org/1999/xlink" width="32" height="32" viewBox="0 0 32 32"><defs><path id="qb0ja" d="M677.396 125.881l1.632-1.163c.412.58.787 1.186 1.12 1.815l-1.77.937a13.98 13.98 0 0 0-.982-1.589zm-1.183-1.445a14.319 14.319 0 0 0-1.366-1.277l1.27-1.55c.55.452 1.07.939 1.558 1.458zm4.807 4.048a15.999 15.999 0 0 1-1.39 13.897c-4.63 7.527-14.483 9.876-22.01 5.247-7.527-4.629-9.876-14.483-5.247-22.009 4.629-7.527 14.483-9.876 22.01-5.247l-1.053 1.703a14.03 14.03 0 0 0-12.203-1.22c-7.271 2.675-10.996 10.74-8.32 18.01 2.676 7.271 10.74 10.996 18.012 8.32 7.27-2.676 10.996-10.74 8.32-18.01l1.879-.69zm-16.049 5.53v2.002h4.006v2.003h-4.006v4.006h-2.003v-4.006h-4.006v-2.003h4.006v-2.003h-4.006v-2.003h4.006v-6.009h7.01a4.006 4.006 0 1 1 0 8.012zm0-2.004h5.008a2.003 2.003 0 1 0 0-4.006h-5.008z"/></defs><g><g transform="translate(-650 -118)"><use fill="#0cf" xlink:href="#qb0ja"/></g></g></svg>