<svg xmlns="http://www.w3.org/2000/svg" xmlns:xlink="http://www.w3.org/1999/xlink" width="32" height="32" viewBox="0 0 32 32"><defs><path id="gdlza" d="M1251.019 222.483a15.995 15.995 0 0 1-1.392 13.9c-4.63 7.525-14.485 9.871-22.01 5.241-7.526-4.63-9.873-14.483-5.242-22.008 4.63-7.524 14.485-9.87 22.01-5.24l-1.052 1.701a14.016 14.016 0 0 0-12.184-1.219c-7.265 2.67-10.988 10.725-8.317 17.988 2.671 7.264 10.726 10.987 17.99 8.316 7.265-2.67 10.989-10.724 8.318-17.988zm-3.62-2.601l1.631-1.162c.413.579.787 1.185 1.12 1.813l-1.77.936c-.291-.55-.619-1.08-.98-1.587zm-1.182-1.445a14.039 14.039 0 0 0-1.363-1.276l1.267-1.55c.551.452 1.072.938 1.558 1.458zm-6.114 14.577h-10.128v-2.002h10.128l.037-.155 1.702-5.85h-9.865v-2.002h9.878a2.002 2.002 0 0 1 1.987 2.248l-.033.154-1.733 5.946a2.002 2.002 0 0 1-1.973 1.661zm-12.13-6.006h6.006v2.002h-6.006z"/></defs><g><g transform="translate(-1220 -212)"><use fill="#0cf" xlink:href="#gdlza"/></g></g></svg>