<svg xmlns="http://www.w3.org/2000/svg" xmlns:xlink="http://www.w3.org/1999/xlink" width="32" height="32" viewBox="0 0 32 32"><defs><path id="kkf5a" d="M963.213 124.436a14.31 14.31 0 0 0-1.366-1.277l1.27-1.55c.55.452 1.07.939 1.558 1.458zm4.807 4.048a15.998 15.998 0 0 1-1.39 13.897c-4.63 7.527-14.483 9.876-22.01 5.247-7.527-4.629-9.876-14.483-5.247-22.009 4.629-7.527 14.483-9.876 22.01-5.247l-1.053 1.703a14.03 14.03 0 0 0-12.203-1.22c-7.271 2.675-10.996 10.74-8.32 18.01 2.676 7.271 10.74 10.996 18.012 8.32 7.271-2.676 10.996-10.74 8.32-18.01l1.879-.69zm-3.624-2.603l1.632-1.163c.412.58.786 1.186 1.12 1.815l-1.77.937c-.292-.551-.62-1.082-.982-1.589zm-18.17 6.13h5.745v2.002h-6.009c.003.676.091 1.35.264 2.003h5.745v2.003h-4.925a7.99 7.99 0 0 0 12.142 2.067l1.311 1.515a9.996 9.996 0 0 1-2.542 1.598c-5.063 2.202-10.953-.117-13.156-5.18h-2.845v-2.003h2.204a10 10 0 0 1-.2-2.003h-2.004v-2.003h2.204a10.005 10.005 0 0 1 2.228-4.543c3.61-4.184 9.927-4.65 14.111-1.041l-1.31 1.514a7.964 7.964 0 0 0-5.215-1.939 8.02 8.02 0 0 0-7.748 6.01z"/></defs><g><g transform="translate(-937 -118)"><use fill="#0cf" xlink:href="#kkf5a"/></g></g></svg>