<svg xmlns="http://www.w3.org/2000/svg" xmlns:xlink="http://www.w3.org/1999/xlink" width="32" height="32" viewBox="0 0 32 32"><defs><path id="h8y1a" d="M389.217 218.439a14.092 14.092 0 0 0-1.365-1.278l1.27-1.549c.55.452 1.071.94 1.558 1.46zm1.183 1.444l1.63-1.161c.414.58.788 1.186 1.12 1.815l-1.77.935a14.033 14.033 0 0 0-.98-1.589zm3.62 2.601a15.995 15.995 0 0 1-1.392 13.899c-4.63 7.524-14.485 9.871-22.01 5.242-7.526-4.63-9.874-14.483-5.244-22.008 4.63-7.524 14.485-9.871 22.01-5.242l-1.052 1.702a14.02 14.02 0 0 0-12.186-1.22c-7.266 2.67-10.991 10.725-8.32 17.99 2.671 7.266 10.727 10.99 17.993 8.32 7.267-2.67 10.992-10.726 8.32-17.991l1.88-.69zm-9.74 5.528a4.468 4.468 0 0 1-2.297 7.958v3.055h-2.003v-3.004h-2.002v3.004h-2.003v-3.004h-4.005v-16.018h4.005V217h2.003v3.003h2.002V217h2.003v3.054a4.495 4.495 0 0 1 4.005 4.455 4.48 4.48 0 0 1-1.708 3.503zm-.295 3.504a2.503 2.503 0 0 0-2.503-2.502h-7.51v5.005h7.51a2.503 2.503 0 0 0 2.503-2.503zm0-7.007a2.503 2.503 0 0 0-2.503-2.503h-7.51v5.005h7.51a2.503 2.503 0 0 0 2.503-2.502z"/></defs><g><g transform="translate(-363 -212)"><use fill="#0cf" xlink:href="#h8y1a"/></g></g></svg>